<?xml version="1.0" encoding="UTF-8"?>
<svg id="Layer_2" data-name="Layer 2" xmlns="http://www.w3.org/2000/svg" viewBox="0 0 1000 362.05">
  <defs>
    <style>
      .cls-1 {
        fill: #0b0c0b;
      }

      .cls-2 {
        fill: #0f9;
      }
    </style>
  </defs>
  <g id="Layer_2-2" data-name="Layer 2">
    <g>
      <g>
        <polygon class="cls-1" points="239.08 346.71 238.05 346.71 230.2 297.5 220.9 297.5 212.95 346.71 211.92 346.71 203.29 274.77 196.37 274.77 206.34 353.35 217.7 353.35 225.19 303.33 225.81 303.33 233.3 353.35 244.66 353.35 254.63 274.77 247.71 274.77 239.08 346.71"/>
        <path class="cls-1" d="M286.18,296.46c-7.61,0-13.5,2.44-17.66,7.31-4.17,4.87-6.25,11.73-6.25,20.58s2.48,16.35,7.44,21.38c4.96,5.03,11.96,7.54,21.02,7.54,2.44,0,4.98-.11,7.62-.34,2.63-.22,5.14-.59,7.51-1.11l-.98-6.35c-2.07,.45-4.23,.8-6.48,1.06-2.25,.26-4.4,.39-6.43,.39-7.33,0-13.01-1.97-17.02-5.91-3.44-3.38-5.39-7.97-5.88-13.76h39.17c.21-1.45,.31-3.24,.31-5.37,0-8.12-1.95-14.39-5.86-18.8-3.91-4.41-9.41-6.61-16.5-6.61Zm-17.14,24.89c.38-5.4,1.85-9.71,4.44-12.91,3.03-3.75,7.3-5.63,12.81-5.63,4.96,0,8.8,1.61,11.54,4.83,2.74,3.22,4.11,7.79,4.11,13.71h-32.89Z"/>
        <path class="cls-1" d="M349.42,296.46c-9.57,0-15.24,3.65-16.99,10.95h-.78l-.04-32.64h-6.76v77.47c2.1,.31,4.13,.56,6.09,.75,1.96,.19,3.98,.28,6.04,.28,10.98,0,19.49-2.8,25.51-8.39,6.03-5.6,9.04-13.47,9.04-23.63,0-7.92-1.93-14.03-5.78-18.33-3.86-4.3-9.3-6.45-16.32-6.45Zm8.52,43.82c-4.44,4.49-10.71,6.74-18.8,6.74-1.86,0-3.73-.07-5.6-.21-.64-.05-1.24-.14-1.84-.22l-.03-25.32,.04,.18c0-12.5,5.73-18.75,17.2-18.75,5.03,0,8.9,1.61,11.62,4.83,2.72,3.22,4.08,7.79,4.08,13.71,0,8.19-2.22,14.54-6.66,19.03Z"/>
        <polygon class="cls-2" points="374.15 362.05 381.18 362.05 424.97 269.09 417.95 269.09 374.15 362.05"/>
        <path class="cls-1" d="M450.48,274.77h-16.94v78.5h16.94c21.83,0,32.74-12.71,32.74-38.14,0-26.9-10.92-40.36-32.74-40.36Zm19.39,63.88c-4.29,5.22-10.75,7.82-19.39,7.82h-10.12v-64.9h10.12c8.64,0,15.11,2.79,19.39,8.37,4.29,5.58,6.43,13.98,6.43,25.18,0,10.47-2.14,18.31-6.43,23.52Z"/>
        <path class="cls-1" d="M518.1,296.46c-7.61,0-13.5,2.44-17.66,7.31-4.17,4.87-6.25,11.73-6.25,20.58s2.48,16.35,7.44,21.38c4.96,5.03,11.96,7.54,21.02,7.54,2.44,0,4.98-.11,7.62-.34,2.63-.22,5.14-.59,7.51-1.11l-.98-6.35c-2.07,.45-4.23,.8-6.48,1.06-2.25,.26-4.4,.39-6.43,.39-7.33,0-13.01-1.97-17.02-5.91-3.44-3.38-5.39-7.97-5.88-13.76h39.17c.21-1.45,.31-3.24,.31-5.37,0-8.12-1.95-14.39-5.86-18.8-3.91-4.41-9.41-6.61-16.5-6.61Zm-17.14,24.89c.38-5.4,1.85-9.71,4.44-12.91,3.03-3.75,7.3-5.63,12.81-5.63,4.96,0,8.8,1.61,11.54,4.83,2.74,3.22,4.11,7.79,4.11,13.71h-32.89Z"/>
        <polygon class="cls-1" points="595.02 297.5 576.74 346.41 576.17 346.41 557.74 297.5 550.35 297.5 571.68 352.24 581.08 352.24 602.41 297.5 595.02 297.5"/>
      </g>
      <polygon class="cls-2" points="1000 0 968.36 0 949.06 19.31 949.06 48.49 968.36 48.49 968.36 69.94 978.76 69.94 1000 48.49 1000 0"/>
      <g>
        <path class="cls-1" d="M686.07,90.48c-12.6-.02-83.66,0-130.91,0-13.03,0-28-.18-41.92,0-27.11,.34-51.88,3.67-62.21,35.57-31.1-46.77-102.81-47.05-134.44-.71-14.74-28.45-39.67-34.86-66.47-34.86h-54.53v32.12c9.51,.87,69-2.37,76.53,2.51,11.69,4.91,19.66,16.78,19.55,29.55,.11,12.77-7.86,24.64-19.55,29.55-7.27,4.88-67.38,1.64-76.53,2.52v67.48h32.06v-35.53l35.86-.22,13.97,35.75h34.07l-17.76-45.36c4.53-2.85,8.64-6.21,12.31-10.07,30.94,84.92,153.41,67.39,159.16-22.79,15.59,16.63,45.23,12.46,65.7,12.82,11.46-.42,19.7,12.4,15.07,22.71-2.48,6.01-8.52,10.01-15.07,9.93,0,0-72.7,0-72.7,0v32.76h72.7c13.1,.11,25.69-5.38,34.75-14.44,18.97-18.03,18.92-51.35,0-69.4-25.33-26.73-61.59-5.21-79.1-19.06-10.17-9.64-3.85-27.88,11.59-28.02,29.03-.26,77.5-.06,106.14,0V254.21h32.64V123.29h49.08v-32.81Zm-256.14,101.32c-12.88,32.37-58.03,41.22-82,15.95-31.76-30.96-8.65-86.17,35.65-85.75,34.84-1.07,60.93,38.2,46.35,69.81Z"/>
        <rect class="cls-1" x="968.33" y="90.54" width="31.67" height="163.67"/>
        <path class="cls-1" d="M935.2,104.17c-16.84-17.54-47.44-18.59-65.17-1.6-20.79-20.01-58.06-14.41-72.26,10.51-22.28-28.05-68.64-30.07-93.22-4-11.64,11.73-18.61,27.9-18.49,44.81,0,0,0,100.32,0,100.32h31.56v-35.1h63.35v35.1h41.59v-116.43c-.19-8.58,7.2-15.97,15.78-15.78,8.58-.19,15.97,7.2,15.78,15.78,0,0,0,116.43,0,116.43h31.67v-116.43c-.19-8.58,7.2-15.97,15.78-15.78,8.57-.18,16.01,7.22,15.89,15.78,0,0,0,116.43,0,116.43h31.56v-116.43c.08-12.66-5.08-24.83-13.85-33.61Zm-154.22,83.38h-63.35c.77-9.27-2.01-37.76,2.48-45.97,4.83-11.6,16.56-19.47,29.19-19.37,12.64-.1,24.36,7.77,29.19,19.37,4.5,8.07,1.77,36.9,2.48,45.97Z"/>
      </g>
      <g>
        <polygon class="cls-2" points="66.12 207.16 16.04 207.16 16.04 131.48 57.52 90 0 90 0 254.21 66.12 254.21 66.12 207.16"/>
        <polygon class="cls-2" points="148.18 90 148.18 207.16 101.59 254.21 164.21 254.21 164.21 90 148.18 90"/>
      </g>
    </g>
  </g>
</svg>